<?xml version="1.0" standalone="no"?>
<!DOCTYPE svg PUBLIC "-//W3C//DTD SVG 20010904//EN"
 "http://www.w3.org/TR/2001/REC-SVG-20010904/DTD/svg10.dtd">
<svg version="1.0" xmlns="http://www.w3.org/2000/svg"
 width="960.000000pt" height="960.000000pt" viewBox="0 0 960.000000 960.000000"
 preserveAspectRatio="xMidYMid meet">
<metadata>
Created by potrace 1.11, written by Peter Selinger 2001-2013
</metadata>
<g transform="translate(0.000000,960.000000) scale(0.100000,-0.100000)"
fill="#000000" stroke="none">
<path d="M4598 8385 c-2 -2 -34 -6 -73 -10 -397 -37 -770 -187 -986 -396 -126
-123 -186 -224 -243 -411 -19 -62 -55 -168 -80 -235 -75 -202 -90 -300 -88
-578 2 -280 18 -494 43 -571 45 -139 145 -178 170 -65 5 23 9 138 9 254 -1
117 1 228 4 247 16 120 36 191 96 344 49 126 65 178 75 254 3 20 8 46 10 58 2
11 7 45 11 75 16 137 88 317 161 405 l33 39 -39 -85 c-40 -89 -94 -252 -92
-277 0 -2 -5 -17 -10 -35 -5 -18 -12 -90 -15 -161 -4 -122 -6 -130 -43 -210
-111 -236 -130 -319 -126 -541 1 -72 5 -187 10 -256 10 -183 -10 -234 -122
-307 -48 -30 -64 -53 -68 -98 -3 -25 42 -126 82 -187 51 -78 117 -137 166
-148 34 -7 51 -2 232 64 173 63 260 9 298 -189 29 -145 39 -175 78 -236 17
-27 47 -62 65 -78 l34 -28 -29 -40 c-56 -77 -88 -156 -73 -180 21 -31 103 -44
135 -20 20 15 27 52 16 91 -5 16 -11 53 -15 84 -5 46 -4 54 9 49 8 -3 35 -9
61 -12 25 -4 46 -8 46 -10 0 -1 -10 -31 -23 -66 -52 -144 -25 -199 93 -195 63
3 98 18 109 49 13 34 4 101 -18 145 -12 23 -21 44 -21 47 0 3 31 5 69 4 l69
-1 -18 -32 c-17 -28 -28 -75 -35 -150 -5 -48 22 -65 102 -62 79 2 113 17 113
49 -1 34 -25 140 -38 164 -7 12 -12 24 -12 27 0 3 37 6 82 6 l81 0 -21 -22
c-29 -31 -38 -62 -41 -139 -3 -64 -2 -66 27 -78 61 -25 181 -7 183 27 4 55
-25 182 -44 194 -21 13 2 21 63 24 33 1 71 5 86 8 25 7 26 5 19 -21 -25 -98
-27 -168 -7 -193 30 -36 137 -24 177 20 22 25 16 81 -18 176 l-27 71 96 99
c103 107 139 159 147 214 12 73 19 96 43 137 13 23 33 45 44 48 11 3 20 10 20
15 0 10 74 24 115 21 16 -1 65 -13 108 -26 91 -29 160 -32 218 -8 84 33 171
197 170 320 0 79 -20 108 -96 142 -150 68 -157 82 -160 330 -3 172 -5 191 -29
255 -39 102 -35 125 26 140 21 5 30 2 38 -14 10 -18 14 -175 11 -390 -2 -136
14 -191 60 -210 36 -15 68 3 102 58 38 62 90 210 111 317 4 17 9 41 12 55 3
14 7 95 8 180 4 180 -3 220 -75 464 -28 92 -52 176 -54 185 -16 82 -116 281
-202 405 -72 102 -90 123 -198 230 -239 235 -428 327 -775 375 -57 8 -425 13
-432 6z m-418 -1665 c147 -31 237 -87 262 -162 15 -43 16 -174 3 -227 -4 -14
-7 -28 -7 -31 0 -3 -9 -23 -20 -45 -39 -78 -223 -237 -343 -298 -102 -51 -176
-35 -265 57 -72 74 -97 134 -128 306 -10 53 -10 239 0 270 23 74 67 116 147
141 36 11 285 3 351 -11z m1377 -22 c69 -28 117 -65 154 -117 22 -31 24 -44
24 -145 0 -99 -9 -204 -20 -246 -2 -8 -6 -33 -10 -55 -15 -106 -86 -154 -227
-155 -108 0 -243 75 -383 215 -104 103 -145 179 -145 272 0 102 33 154 131
204 121 61 360 75 476 27z m-803 -522 c20 -30 36 -57 36 -60 0 -4 10 -23 23
-44 184 -293 222 -505 111 -616 -39 -39 -73 -46 -98 -20 -9 8 -43 60 -76 114
-34 54 -67 101 -75 104 -21 8 -50 -22 -81 -82 -42 -83 -85 -101 -114 -47 -18
34 -7 117 33 260 19 66 42 156 52 200 22 99 60 198 92 236 31 37 48 29 97 -45z"/>
<path d="M20 7340 c-12 -8 -15 -37 -14 -167 1 -187 5 -219 39 -338 37 -129 86
-248 174 -425 162 -325 328 -584 580 -903 57 -73 107 -134 110 -137 4 -3 19
-21 35 -40 113 -138 492 -526 660 -676 49 -43 101 -90 115 -103 51 -47 318
-268 406 -336 50 -38 92 -72 95 -76 7 -9 346 -259 405 -299 28 -19 52 -37 55
-40 3 -4 16 -13 29 -20 14 -7 30 -17 35 -22 53 -45 535 -339 725 -440 31 -17
75 -41 99 -55 163 -93 739 -367 1042 -495 161 -69 215 -91 255 -109 202 -87
902 -332 1285 -449 58 -18 152 -47 210 -65 155 -48 170 -50 171 -28 7 114 -2
196 -27 247 -40 78 -99 117 -289 186 -33 12 -69 26 -80 30 -11 5 -29 11 -40
13 -11 3 -112 38 -225 77 -113 39 -281 96 -375 127 -338 110 -609 215 -895
346 -185 85 -650 318 -779 391 -42 24 -96 54 -121 68 -25 14 -72 40 -105 58
-69 38 -454 269 -470 282 -10 8 -177 120 -220 148 -59 37 -277 202 -305 230
-3 3 -34 30 -70 60 -116 97 -249 239 -279 298 -15 28 -9 38 10 19 8 -7 52 -46
99 -86 47 -40 96 -83 110 -94 126 -109 382 -301 570 -428 69 -46 129 -88 135
-92 41 -33 474 -300 674 -415 126 -73 438 -230 601 -302 52 -23 109 -48 125
-56 52 -23 329 -135 345 -139 8 -2 76 -27 150 -55 74 -28 281 -100 460 -160
179 -60 397 -134 485 -164 302 -103 417 -125 502 -100 79 24 171 74 202 109
50 58 44 67 -61 94 -105 26 -118 30 -348 101 -251 78 -605 198 -735 250 -11 4
-58 22 -105 40 -124 47 -545 218 -618 251 -34 16 -64 29 -66 29 -3 0 -112 48
-242 106 -399 177 -884 423 -1164 591 -41 24 -82 48 -90 53 -154 88 -579 377
-835 569 -126 94 -472 366 -485 380 -4 5 -114 99 -147 126 -7 5 -30 26 -51 45
-22 19 -83 75 -138 124 -171 154 -533 522 -664 676 -12 14 -34 39 -48 55 -28
32 -166 196 -192 228 -8 11 -20 24 -26 31 -6 6 -77 94 -158 196 -81 102 -154
193 -163 204 -73 91 -226 308 -271 386 -30 51 -66 100 -74 100 -1 0 -10 -5
-18 -10z"/>
<path d="M9560 7343 c-8 -2 -28 -23 -43 -46 -107 -166 -191 -287 -275 -396
-86 -111 -346 -434 -405 -501 -12 -14 -57 -68 -101 -120 -44 -52 -82 -97 -85
-100 -3 -3 -44 -48 -91 -100 -90 -102 -456 -470 -556 -560 -33 -30 -96 -86
-139 -125 -43 -38 -86 -77 -95 -85 -9 -8 -38 -33 -65 -55 -28 -21 -52 -42 -55
-45 -3 -3 -41 -35 -85 -70 -44 -36 -82 -67 -85 -70 -10 -11 -140 -111 -270
-209 -74 -55 -139 -104 -145 -109 -103 -82 -590 -407 -795 -529 -366 -218
-859 -470 -1287 -659 -62 -27 -113 -51 -113 -54 0 -3 31 -18 68 -34 37 -16 73
-34 81 -40 7 -6 27 -16 45 -22 17 -6 65 -26 108 -44 l76 -33 194 96 c106 54
227 117 268 142 41 24 81 44 88 44 6 1 12 6 12 11 0 6 7 10 15 10 8 0 15 5 15
10 0 6 5 10 11 10 11 0 108 58 334 198 170 106 429 280 568 381 66 47 129 93
141 101 33 23 270 211 281 224 6 6 26 24 45 40 19 15 54 46 78 68 97 90 5 -46
-106 -157 -274 -274 -726 -587 -1317 -912 -150 -83 -247 -134 -401 -213 -73
-37 -137 -71 -144 -75 -8 -5 18 -19 66 -37 44 -16 88 -33 99 -38 25 -10 57
-22 70 -26 6 -2 55 -18 110 -37 55 -19 105 -31 110 -27 6 4 62 34 125 66 95
48 271 144 460 251 78 44 282 171 389 242 63 42 121 81 130 86 60 37 486 348
556 407 21 17 103 83 120 96 14 10 248 205 261 217 6 5 45 39 85 75 149 131
198 178 399 380 269 270 395 414 586 665 346 459 634 1013 688 1325 16 95 17
364 1 378 -5 5 -17 7 -25 5z m-334 -916 c-31 -84 -144 -299 -166 -317 -3 -3
-17 -23 -30 -45 -25 -40 -160 -236 -170 -245 -3 -3 -27 -34 -55 -70 -27 -36
-52 -67 -55 -70 -3 -3 -32 -39 -65 -80 -32 -41 -62 -77 -65 -80 -3 -3 -18 -21
-34 -40 -210 -256 -643 -666 -673 -636 -3 3 84 94 193 204 265 264 397 408
553 597 9 11 34 43 57 70 104 127 359 486 387 545 4 8 21 38 37 65 17 28 44
76 61 108 18 31 36 57 40 57 5 0 -2 -28 -15 -63z"/>
<path d="M5784 5441 c-35 -10 -68 -43 -121 -123 -74 -111 -109 -215 -134 -394
-5 -44 -12 -90 -14 -104 -2 -14 -6 -45 -10 -70 -14 -98 -45 -168 -95 -218 -41
-41 -149 -107 -158 -97 -2 2 1 19 7 37 20 63 20 109 0 129 -11 11 -29 19 -41
20 -13 0 -32 2 -43 4 -25 5 -100 -38 -121 -70 -17 -26 -14 -73 10 -130 14 -34
14 -35 -7 -36 -67 -4 -107 -5 -107 -3 0 1 7 21 15 45 26 72 27 134 3 156 -26
23 -165 26 -191 4 -21 -17 -22 -86 -3 -159 l13 -52 -70 0 -69 0 15 23 c18 27
34 85 40 139 6 58 -16 72 -114 70 -108 -2 -121 -10 -115 -70 6 -62 15 -101 26
-123 20 -37 13 -41 -57 -34 -37 4 -69 8 -71 10 -2 2 1 11 7 22 17 32 28 76 30
129 3 68 -16 85 -97 85 -58 1 -99 -12 -114 -34 -8 -13 -3 -125 7 -149 7 -17 4
-17 -36 -3 -70 24 -108 47 -138 85 -49 62 -63 101 -76 225 -3 33 -10 85 -16
116 -11 63 -107 356 -134 409 -56 109 -128 145 -202 100 -67 -41 -71 -94 -15
-230 21 -52 42 -111 46 -130 4 -19 10 -48 14 -65 6 -30 7 -186 3 -341 -2 -64
2 -92 17 -126 28 -63 43 -80 167 -173 110 -83 146 -116 305 -280 113 -116 139
-129 260 -127 52 1 106 4 120 8 45 11 324 13 365 3 22 -5 90 -11 150 -14 93
-4 116 -2 151 14 47 21 101 71 160 146 66 85 136 154 210 211 90 67 138 114
158 152 8 16 18 69 21 118 5 88 7 101 25 199 11 61 15 75 34 145 18 65 57 211
60 225 1 6 5 19 9 30 3 11 8 38 12 60 3 22 7 47 10 55 17 58 20 157 5 175 -10
12 -70 15 -106 6z"/>
<path d="M1890 3338 c-110 -19 -202 -93 -239 -192 -24 -66 -22 -191 5 -265 41
-114 141 -184 256 -180 34 1 75 8 90 15 31 16 72 67 83 104 35 119 135 19 289
-288 49 -98 132 -300 141 -342 2 -8 4 -15 5 -15 1 0 3 -7 5 -15 2 -8 20 -73
40 -145 20 -71 38 -138 40 -148 15 -65 89 -330 103 -366 38 -103 129 -203 228
-252 76 -38 106 -44 224 -44 170 0 287 51 326 144 17 38 22 151 11 212 -22
119 -83 181 -190 191 -71 7 -118 -19 -154 -88 -15 -29 -32 -54 -36 -54 -16 0
-83 75 -113 125 -34 56 -49 93 -60 145 -4 19 -8 37 -9 40 -4 16 -18 215 -19
270 -3 120 33 217 103 284 35 33 40 55 14 57 -128 10 -223 46 -272 105 -18 22
-60 93 -94 159 -80 155 -141 245 -219 326 -82 84 -131 122 -215 163 -109 54
-235 74 -343 54z"/>
<path d="M7417 3325 c-72 -22 -104 -35 -142 -58 -148 -89 -266 -226 -380 -442
-92 -172 -119 -200 -259 -266 -110 -51 -114 -56 -75 -105 61 -76 82 -153 81
-292 0 -71 -9 -172 -17 -202 -2 -8 -6 -26 -9 -40 -9 -54 -28 -113 -48 -148
-46 -83 -114 -162 -139 -162 -4 0 -14 18 -23 41 -31 78 -80 109 -159 102 -127
-12 -190 -99 -196 -270 -3 -92 14 -148 60 -194 57 -57 133 -81 267 -85 91 -2
125 2 170 17 131 45 227 133 283 259 17 37 59 174 74 242 2 9 20 79 40 155 20
76 38 145 40 153 66 273 261 696 372 804 54 52 73 48 106 -23 38 -83 72 -105
163 -108 168 -4 273 110 280 307 6 159 -79 283 -221 321 -72 20 -189 17 -268
-6z"/>
<path d="M3410 2974 c-206 -68 -422 -137 -480 -155 -58 -17 -108 -34 -112 -36
-13 -7 14 -63 48 -97 47 -47 118 -69 223 -69 100 0 188 18 396 80 157 47 645
209 653 218 3 3 -8 10 -24 15 -31 11 -206 98 -284 142 l-45 25 -375 -123z"/>
<path d="M4010 2783 c-135 -46 -249 -86 -255 -87 -5 -2 -17 -6 -25 -9 -8 -4
-109 -38 -225 -77 -115 -39 -219 -75 -230 -79 -78 -31 -136 -64 -176 -99 -38
-34 -49 -53 -63 -102 -17 -61 -26 -213 -13 -226 4 -4 30 0 59 9 398 120 527
160 548 169 14 5 72 25 130 43 92 29 193 64 440 150 66 24 293 110 429 163
l74 29 -69 29 c-37 16 -138 62 -223 102 -85 39 -155 72 -155 71 -1 0 -111 -39
-246 -86z"/>
<path d="M1723 2550 c-18 -11 -33 -23 -34 -27 0 -5 -2 -16 -4 -26 -8 -42 50
-186 103 -255 14 -18 23 -35 20 -37 -3 -3 -25 8 -49 25 -51 33 -78 77 -113
180 -37 108 -72 138 -167 141 -95 3 -109 0 -140 -31 -28 -28 -30 -34 -25 -87
6 -73 40 -219 63 -269 18 -40 68 -120 88 -140 40 -41 110 -84 147 -89 137 -20
602 -20 768 0 71 9 92 40 88 135 -3 81 -29 175 -72 255 -101 190 -156 246
-240 240 -101 -8 -103 -109 -6 -255 51 -77 52 -80 40 -80 -6 0 -37 26 -69 59
-44 45 -66 77 -91 137 -17 44 -41 89 -52 101 -41 44 -197 59 -255 23z"/>
<path d="M7336 2560 c-39 -12 -70 -43 -121 -120 -80 -122 -131 -256 -138 -361
-7 -97 21 -138 100 -144 98 -9 272 -15 423 -15 257 -1 371 12 404 45 8 8 17
15 21 15 13 0 86 87 110 132 26 48 61 149 71 202 3 17 9 47 13 66 11 51 5 119
-14 140 -22 24 -78 37 -143 33 -98 -6 -132 -37 -178 -168 -22 -62 -39 -90 -76
-127 -26 -27 -52 -48 -57 -48 -6 0 3 22 19 48 35 58 78 168 84 217 4 27 -1 42
-19 63 -22 26 -27 27 -117 27 -124 0 -153 -16 -189 -106 -32 -80 -67 -131
-121 -180 -42 -38 -65 -45 -36 -12 35 41 81 139 93 204 14 68 -50 112 -129 89z"/>
<path d="M875 2536 c-132 -41 -209 -132 -244 -287 -15 -67 -6 -217 17 -281 50
-141 169 -249 309 -281 87 -20 147 -13 230 30 103 52 246 206 229 248 -7 20
-31 10 -86 -35 -68 -56 -98 -68 -170 -68 -69 0 -113 16 -130 47 -12 23 -15 20
88 73 108 54 148 110 160 222 16 137 -48 268 -157 318 -55 26 -184 33 -246 14z"/>
<path d="M8465 2541 c-74 -18 -143 -77 -176 -148 -22 -48 -39 -125 -34 -157 2
-12 6 -41 9 -64 14 -96 68 -159 180 -207 74 -33 80 -48 29 -77 -35 -21 -140
-30 -190 -16 -18 5 -57 31 -87 59 -50 45 -56 48 -70 33 -19 -19 -13 -52 20
-111 72 -126 282 -207 436 -167 154 40 272 159 314 319 29 106 11 274 -38 370
-69 133 -237 204 -393 166z"/>
</g>
</svg>
